<svg xmlns="http://www.w3.org/2000/svg" width="800" height="600" viewBox="0 0 800 600">
  <rect width="800" height="600" fill="transparent"/>
  
  <!-- Static stars pattern -->
  <g fill="white" opacity="0.5">
    <!-- Row 1 -->
    <circle cx="50" cy="30" r="1.2" />
    <circle cx="150" cy="60" r="0.8" />
    <circle cx="250" cy="20" r="1.0" />
    <circle cx="350" cy="70" r="1.5" />
    <circle cx="450" cy="40" r="0.7" />
    <circle cx="550" cy="30" r="1.2" />
    <circle cx="650" cy="50" r="0.9" />
    <circle cx="750" cy="80" r="1.0" />
    
    <!-- Row 2 -->
    <circle cx="100" cy="120" r="1.0" />
    <circle cx="200" cy="150" r="0.8" />
    <circle cx="300" cy="110" r="1.4" />
    <circle cx="400" cy="160" r="0.7" />
    <circle cx="500" cy="130" r="1.2" />
    <circle cx="600" cy="120" r="0.8" />
    <circle cx="700" cy="170" r="1.1" />
    
    <!-- Row 3 -->
    <circle cx="50" cy="210" r="0.9" />
    <circle cx="150" cy="240" r="1.3" />
    <circle cx="250" cy="200" r="0.8" />
    <circle cx="350" cy="250" r="1.0" />
    <circle cx="450" cy="220" r="1.2" />
    <circle cx="550" cy="210" r="0.7" />
    <circle cx="650" cy="230" r="1.1" />
    <circle cx="750" cy="260" r="0.9" />
    
    <!-- Row 4 -->
    <circle cx="100" cy="300" r="1.2" />
    <circle cx="200" cy="330" r="0.7" />
    <circle cx="300" cy="290" r="1.0" />
    <circle cx="400" cy="340" r="1.5" />
    <circle cx="500" cy="310" r="0.8" />
    <circle cx="600" cy="300" r="1.1" />
    <circle cx="700" cy="350" r="0.9" />
    
    <!-- Row 5 -->
    <circle cx="50" cy="390" r="1.0" />
    <circle cx="150" cy="420" r="0.8" />
    <circle cx="250" cy="380" r="1.2" />
    <circle cx="350" cy="430" r="0.9" />
    <circle cx="450" cy="400" r="1.1" />
    <circle cx="550" cy="390" r="0.7" />
    <circle cx="650" cy="410" r="1.3" />
    <circle cx="750" cy="440" r="0.8" />
    
    <!-- Row 6 -->
    <circle cx="100" cy="480" r="1.1" />
    <circle cx="200" cy="510" r="0.9" />
    <circle cx="300" cy="470" r="0.7" />
    <circle cx="400" cy="520" r="1.2" />
    <circle cx="500" cy="490" r="1.0" />
    <circle cx="600" cy="480" r="0.8" />
    <circle cx="700" cy="530" r="1.4" />
    
    <!-- Row 7 -->
    <circle cx="50" cy="570" r="0.8" />
    <circle cx="150" cy="540" r="1.0" />
    <circle cx="250" cy="560" r="1.2" />
    <circle cx="350" cy="590" r="0.7" />
    <circle cx="450" cy="550" r="0.9" />
    <circle cx="550" cy="570" r="1.1" />
    <circle cx="650" cy="540" r="0.8" />
    <circle cx="750" cy="580" r="1.3" />
  </g>
</svg> 